# xmcd
#
# Track frame offsets: 
#        150
#        52165
#        152569
#        179584
#        204480
#
# Disc length: 3128 seconds
#
# Revision: 0
# Processed by: cddbd v1.5.2PL0 Copyright (c) Steve Scherf et al.
# Submitted via: ExactAudioCopy v1.0b1
#
DISCID=420c3605
DTITLE=Deep Purple  - Live In Denmark '72 CD2  
DYEAR=1900
DGENRE=
TTITLE0=Lazy
TTITLE1=Space Truckin'
TTITLE2=Fireball
TTITLE3=Lucille
TTITLE4=Black Night
EXTD=
EXTT0=
EXTT1=
EXTT2=
EXTT3=
EXTT4=
PLAYORDER=
